<svg xmlns="http://www.w3.org/2000/svg" version="1.1" xmlns:xlink="http://www.w3.org/1999/xlink" xmlns:svgjs="http://svgjs.dev/svgjs" width="128" height="128" viewBox="0 0 128 128">
	<g transform="matrix(0.64375,0,0,0.64375,23.009119712789463,12.760752631578946)">
		<svg viewBox="0 0 76 95" data-background-color="#1b4571" preserveAspectRatio="xMidYMid meet" height="160" width="128" xmlns="http://www.w3.org/2000/svg" xmlns:xlink="http://www.w3.org/1999/xlink">
			<g id="tight-bounds" transform="matrix(1,0,0,1,-0.19287740499999018,-0.24049999999999727)">
				<svg viewBox="0 0 76.38575481 95.481" height="95.481" width="76.38575481">
					<g>
						<svg viewBox="0 0 76.38575481 95.481" height="95.481" width="76.38575481">
							<g>
								<svg viewBox="0 0 76.38575481 95.481" height="95.481" width="76.38575481">
									<g>
										<svg viewBox="0 0 76.38575481 95.481" height="95.481" width="76.38575481">
											<g>
												<svg viewBox="0 0 76.38575481 95.481" height="95.481" width="76.38575481">
													<g>
														<svg viewBox="0 0 76.38575481 95.481" height="95.481" width="76.38575481">
															<g>
																<svg version="1.1" xmlns="http://www.w3.org/2000/svg" xmlns:xlink="http://www.w3.org/1999/xlink" x="0" y="0" viewBox="0 0 80.001 100" enable-background="new 0 0 80.001 100" xml:space="preserve" width="76.38575481" height="95.481" class="icon-icon-0" data-fill-palette-color="accent" id="icon-0">
																	<path d="M64.001 40v2H64h-7v-8h-3.714C60.104 31.608 65 25.134 65 17.5 65 7.835 57.165 0 47.5 0c-6.378 0-11.941 3.423-15 8.52C29.441 3.423 23.878 0 17.5 0 7.835 0 0 7.835 0 17.5 0 25.134 4.896 31.608 11.714 34H8v11H2v6h6v11h20v2h-5v4h3.14l-22.6 32h4.908l22.588-32h3.104l-22.6 32h4.908l22.588-32H42v-4h-5v-2h20v-8h7 0.001v2h16V40H64.001zM23.286 34c3.882-1.361 7.129-4.046 9.214-7.52 2.085 3.474 5.332 6.158 9.214 7.52H23.286z" fill="#79bdff" data-fill-palette-color="accent">
																	</path>
																</svg>
															</g>
														</svg>
													</g>
												</svg>
											</g>
										</svg>
									</g>
								</svg>
							</g>
						</svg>
					</g>
					<defs>
					</defs>
				</svg>
				<rect width="76.38575481" height="95.481" fill="none" stroke="none" visibility="hidden">
				</rect>
			</g>
		</svg>
	</g>
</svg>
