<svg xmlns="http://www.w3.org/2000/svg" version="1.1" xmlns:xlink="http://www.w3.org/1999/xlink" xmlns:svgjs="http://svgjs.dev/svgjs" width="2000" height="489" viewBox="0 0 2000 489">
	<g transform="matrix(1,0,0,1,-1.2121090849959728,0.9196087741272834)">
		<svg viewBox="0 0 396 97" data-background-color="#1b4571" preserveAspectRatio="xMidYMid meet" height="489" width="2000" xmlns="http://www.w3.org/2000/svg" xmlns:xlink="http://www.w3.org/1999/xlink">
			<g id="tight-bounds" transform="matrix(1,0,0,1,0.23999759882920557,-0.1824172823933452)">
				<svg viewBox="0 0 395.5199999999999 97.36479304320174" height="97.36479304320174" width="395.5199999999999">
					<g>
						<svg viewBox="0 0 561.1953507058239 138.14894108586057" height="97.36479304320174" width="395.5199999999999">
							<g transform="matrix(1,0,0,1,165.6753507058239,39.92452558880184)">
								<svg viewBox="0 0 395.52 58.29988990825689" height="58.29988990825689" width="395.52">
									<g>
										<svg viewBox="0 0 395.52 58.29988990825689" height="58.29988990825689" width="395.52">
											<g>
												<svg viewBox="0 0 395.52 58.29988990825689" height="58.29988990825689" width="395.52">
													<g transform="matrix(1,0,0,1,0,0)">
														<svg width="395.52" viewBox="3.200000047683716 -35.70000076293945 245.22999572753906 36.150001525878906" height="58.29988990825689" data-palette-color="#ffffff">
															<path d="M3.2 0L3.2-35.25 20.25-35.25Q26.1-35.25 29.35-32.27 32.6-29.3 32.6-24L32.6-24Q32.6-18.75 29.33-15.75 26.05-12.75 20.25-12.75L20.25-12.75 12.4-12.75 12.4 0 3.2 0ZM12.4-19.65L19-19.65Q21.55-19.65 22.78-20.7 24-21.75 24-23.95L24-23.95Q24-26.15 22.78-27.23 21.55-28.3 19-28.3L19-28.3 12.4-28.3 12.4-19.65ZM53.9 0.45Q48.5 0.45 44.52-1.78 40.55-4 38.4-8.08 36.25-12.15 36.25-17.65L36.25-17.65Q36.25-23.15 38.4-27.23 40.55-31.3 44.52-33.5 48.5-35.7 53.9-35.7L53.9-35.7Q59.3-35.7 63.27-33.5 67.25-31.3 69.37-27.23 71.5-23.15 71.5-17.65L71.5-17.65Q71.5-12.15 69.35-8.08 67.2-4 63.22-1.78 59.25 0.45 53.9 0.45L53.9 0.45ZM53.9-6.6Q57.9-6.6 60.15-9.43 62.4-12.25 62.4-17.65L62.4-17.65Q62.4-23.05 60.12-25.85 57.85-28.65 53.9-28.65L53.9-28.65Q49.9-28.65 47.65-25.88 45.4-23.1 45.4-17.65L45.4-17.65Q45.4-12.2 47.65-9.4 49.9-6.6 53.9-6.6L53.9-6.6ZM86.15 0L76.95 0 76.95-35.25 86.15-35.25 86.15 0ZM105.29 0.45Q101.34 0.45 97.49-0.6 93.64-1.65 91.24-3.4L91.24-3.4 94.09-9.9Q96.64-8.3 99.54-7.45 102.44-6.6 105.39-6.6L105.39-6.6Q108.39-6.6 109.97-7.43 111.54-8.25 111.54-9.75L111.54-9.75Q111.54-11.1 110.12-11.95 108.69-12.8 104.69-13.65L104.69-13.65Q99.74-14.7 96.94-16.15 94.14-17.6 93.02-19.55 91.89-21.5 91.89-24.35L91.89-24.35Q91.89-27.6 93.72-30.18 95.54-32.75 98.87-34.23 102.19-35.7 106.49-35.7L106.49-35.7Q110.29-35.7 113.87-34.63 117.44-33.55 119.44-31.85L119.44-31.85 116.64-25.35Q111.84-28.65 106.54-28.65L106.54-28.65Q103.99-28.65 102.44-27.68 100.89-26.7 100.89-25.1L100.89-25.1Q100.89-24.15 101.44-23.55 101.99-22.95 103.49-22.38 104.99-21.8 107.94-21.2L107.94-21.2Q112.74-20.15 115.49-18.68 118.24-17.2 119.39-15.25 120.54-13.3 120.54-10.6L120.54-10.6Q120.54-5.4 116.54-2.48 112.54 0.45 105.29 0.45L105.29 0.45ZM143.94-18.5L160.04 0 149.14 0 134.94-15.95 134.94 0 125.74 0 125.74-35.25 134.94-35.25 134.94-20.1 148.74-35.25 159.49-35.25 143.94-18.5ZM169.84 0L160.64 0 160.64-35.25 169.84-35.25 169.84 0ZM199.09-15.1L199.09-35.25 207.69-35.25 207.69 0 200.88 0 184.78-20.15 184.78 0 176.23 0 176.23-35.25 182.94-35.25 199.09-15.1ZM230.83 0.45Q225.43 0.45 221.46-1.78 217.48-4 215.33-8.08 213.18-12.15 213.18-17.65L213.18-17.65Q213.18-23.15 215.33-27.23 217.48-31.3 221.46-33.5 225.43-35.7 230.83-35.7L230.83-35.7Q236.23-35.7 240.21-33.5 244.18-31.3 246.31-27.23 248.43-23.15 248.43-17.65L248.43-17.65Q248.43-12.15 246.28-8.08 244.13-4 240.16-1.78 236.18 0.45 230.83 0.45L230.83 0.45ZM230.83-6.6Q234.83-6.6 237.08-9.43 239.33-12.25 239.33-17.65L239.33-17.65Q239.33-23.05 237.06-25.85 234.78-28.65 230.83-28.65L230.83-28.65Q226.83-28.65 224.58-25.88 222.33-23.1 222.33-17.65L222.33-17.65Q222.33-12.2 224.58-9.4 226.83-6.6 230.83-6.6L230.83-6.6Z" opacity="1" transform="matrix(1,0,0,1,0,0)" fill="#ffffff" class="undefined-text-0" data-fill-palette-color="primary" id="text-0">
															</path>
														</svg>
													</g>
												</svg>
											</g>
										</svg>
									</g>
								</svg>
							</g>
							<g>
								<svg viewBox="0 0 138.14894108586057 138.14894108586057" height="138.14894108586057" width="138.14894108586057">
									<g>
										<svg>
										</svg>
									</g>
									<g id="icon-0">
										<svg viewBox="0 0 138.14894108586057 138.14894108586057" height="138.14894108586057" width="138.14894108586057">
											<g>
												<path d="M0 69.074c0-38.149 30.926-69.074 69.074-69.074 38.149 0 69.074 30.926 69.075 69.074 0 38.149-30.926 69.074-69.075 69.075-38.149 0-69.074-30.926-69.074-69.075zM69.074 132.891c35.245 0 63.817-28.572 63.817-63.817 0-35.245-28.572-63.817-63.817-63.816-35.245 0-63.817 28.572-63.816 63.816 0 35.245 28.572 63.817 63.816 63.817z" data-fill-palette-color="accent" fill="#79bdff" stroke="transparent">
												</path>
											</g>
											<g transform="matrix(1,0,0,1,39.88736372059765,32.59104280734936)">
												<svg viewBox="0 0 58.37421364466528 72.96685547116185" height="72.96685547116185" width="58.37421364466528">
													<g>
														<svg version="1.1" xmlns="http://www.w3.org/2000/svg" xmlns:xlink="http://www.w3.org/1999/xlink" x="0" y="0" viewBox="0 0 80.0009994506836 100" enable-background="new 0 0 80.001 100" xml:space="preserve" width="58.37421364466528" height="72.96685547116185" class="icon-a-0" data-fill-palette-color="accent" id="a-0">
															<path d="M64.001 40v2H64h-7v-8h-3.714C60.104 31.608 65 25.134 65 17.5 65 7.835 57.165 0 47.5 0c-6.378 0-11.941 3.423-15 8.52C29.441 3.423 23.878 0 17.5 0 7.835 0 0 7.835 0 17.5 0 25.134 4.896 31.608 11.714 34H8v11H2v6h6v11h20v2h-5v4h3.14l-22.6 32h4.908l22.588-32h3.104l-22.6 32h4.908l22.588-32H42v-4h-5v-2h20v-8h7 0.001v2h16V40H64.001zM23.286 34c3.882-1.361 7.129-4.046 9.214-7.52 2.085 3.474 5.332 6.158 9.214 7.52H23.286z" fill="#79bdff" data-fill-palette-color="accent">
															</path>
														</svg>
													</g>
												</svg>
											</g>
										</svg>
									</g>
								</svg>
							</g>
						</svg>
					</g>
					<defs>
					</defs>
				</svg>
				<rect width="395.5199999999999" height="97.36479304320174" fill="none" stroke="none" visibility="hidden">
				</rect>
			</g>
		</svg>
	</g>
</svg>
