<svg width="64" height="64" viewBox="0 0 64 64" fill="none" xmlns="http://www.w3.org/2000/svg">
<path fill-rule="evenodd" clip-rule="evenodd" d="M11 7H53V47.9142L43.9142 57H11V7ZM13 9V55H42.5V46.5H51V9H13ZM49.5858 48.5H44.5V53.5858L49.5858 48.5Z" fill="black"/>
<path fill-rule="evenodd" clip-rule="evenodd" d="M15 12H22V19H15V12ZM17 14V17H20V14H17Z" fill="black"/>
<path fill-rule="evenodd" clip-rule="evenodd" d="M15 22H22V29H15V22ZM17 24V27H20V24H17Z" fill="black"/>
<path fill-rule="evenodd" clip-rule="evenodd" d="M15 32H22V39H15V32ZM17 34V37H20V34H17Z" fill="black"/>
<path fill-rule="evenodd" clip-rule="evenodd" d="M42 12H49V19H42V12ZM44 14V17H47V14H44Z" fill="black"/>
<path fill-rule="evenodd" clip-rule="evenodd" d="M42 22H49V29H42V22ZM44 24V27H47V24H44Z" fill="black"/>
<path fill-rule="evenodd" clip-rule="evenodd" d="M42 32H49V39H42V32ZM44 34V37H47V34H44Z" fill="black"/>
<path fill-rule="evenodd" clip-rule="evenodd" d="M15 42H22V49H15V42ZM17 44V47H20V44H17Z" fill="black"/>
</svg>
